# Blender v2.92.0 OBJ File: 'BaseCharacterModel.blend'
# www.blender.org
mtllib BaseCharacterModel.mtl
o Cube
v 0.482948 0.728517 -0.707161
v 0.357158 -1.011768 -0.686073
v 0.621343 0.691638 0.806465
v 0.538922 -1.125790 0.823335
v 0.756406 0.072289 -0.804164
v 0.756406 -0.333333 -0.804164
v 0.818600 0.072289 0.823335
v 0.818600 -0.333333 0.823335
v 0.726542 0.863271 -0.261664
v 0.726542 0.863271 0.280835
v 0.477099 -1.125790 0.280835
v 0.473333 -1.125790 -0.261664
v 1.000000 -0.333333 -0.261664
v 1.000000 -0.333333 0.280835
v 1.000000 0.072289 -0.261664
v 1.000000 0.072289 0.280835
v 0.467364 -1.595744 0.329747
v 0.463598 -1.595744 -0.261976
v 0.478312 -2.131196 0.623007
v 0.545146 -2.131196 -0.544087
v 1.515627 -1.577787 0.217834
v 1.547527 -1.577787 -0.121047
v 1.651360 -2.113238 0.323395
v 1.647593 -2.113238 -0.268328
v 0.504574 -5.563530 0.622885
v 0.500808 -5.563530 -0.410323
v 1.677622 -5.545572 0.323273
v 1.673856 -5.545572 -0.268450
v 1.667505 -4.223361 0.323320
v 1.658751 -3.079250 0.323360
v 0.494458 -4.241319 0.622932
v 0.524080 -3.097208 0.859343
v 1.654985 -3.079251 -0.268363
v 1.663739 -4.223361 -0.268403
v 0.561291 -4.241319 -0.544162
v 0.552537 -3.097208 -0.519074
v 4.207950 -1.276052 0.249377
v 4.239850 -1.276052 -0.089505
v 4.343682 -1.811503 0.354937
v 4.339916 -1.811503 -0.236786
v 4.351074 -2.777516 0.354903
v 4.347308 -2.777516 -0.236820
v -0.482948 0.728517 -0.707161
v -0.357158 -1.011768 -0.686073
v -0.621343 0.691638 0.806465
v -0.538922 -1.125790 0.823335
v 0.000000 -1.176217 -0.690290
v 0.000000 0.870429 0.928774
v 0.000000 -1.462618 1.109488
v 0.000000 0.804477 -0.804018
v -0.756406 0.072289 -0.804164
v -0.756406 -0.333333 -0.804164
v -0.818600 0.072289 0.823335
v -0.818600 -0.333333 0.823335
v 0.000000 0.072289 -0.998171
v 0.000000 -0.333333 -0.998171
v 0.000000 0.072289 1.063236
v 0.000000 -0.333333 1.278831
v -0.726542 0.863271 -0.261664
v -0.726542 0.863271 0.280835
v -0.477099 -1.125790 0.280835
v -0.473333 -1.125790 -0.261664
v 0.000000 -1.211028 -0.335873
v 0.000000 -1.271288 0.559707
v 0.000000 1.000000 -0.261664
v 0.000000 1.000000 0.280835
v -1.000000 -0.333333 -0.261664
v -1.000000 -0.333333 0.280835
v -1.000000 0.072289 -0.261664
v -1.000000 0.072289 0.280835
v 0.000000 0.336886 0.271074
v -0.467364 -1.595744 0.329747
v -0.463598 -1.595744 -0.261976
v 0.000000 -1.709916 -0.388658
v 0.000000 -1.709916 0.608619
v -0.478312 -2.131196 0.623007
v -0.545146 -2.131196 -0.544087
v 0.000000 -2.131196 -0.523309
v 0.000000 -2.131196 0.607854
v -1.515627 -1.577787 0.217834
v -1.547527 -1.577787 -0.121047
v -1.651360 -2.113238 0.323395
v -1.647593 -2.113238 -0.268328
v -0.504574 -5.563530 0.622885
v -0.500808 -5.563530 -0.410323
v 0.000000 -5.563530 -0.389544
v 0.000000 -5.563530 0.607733
v -1.677622 -5.545572 0.323273
v -1.673856 -5.545572 -0.268450
v 0.000000 -3.097208 0.870997
v 0.000000 -4.241319 0.607780
v -1.667505 -4.223361 0.323320
v -1.658751 -3.079250 0.323360
v -0.494458 -4.241319 0.622932
v -0.524080 -3.097208 0.859343
v -1.654985 -3.079251 -0.268363
v -1.663739 -4.223361 -0.268403
v -0.561291 -4.241319 -0.544162
v -0.552537 -3.097208 -0.519074
v 0.000000 -4.241319 -0.523383
v 0.000000 -3.097208 -0.616670
v -4.207950 -1.276052 0.249377
v -4.239850 -1.276052 -0.089505
v -4.343682 -1.811503 0.354937
v -4.339916 -1.811503 -0.236786
v -4.351074 -2.777516 0.354903
v -4.347308 -2.777516 -0.236820
vt 0.250000 0.666667
vt 0.375000 0.750000
vt 0.250000 0.750000
vt 0.509036 0.666667
vt 0.625000 0.750000
vt 0.509036 0.750000
vt 0.509036 0.375000
vt 0.625000 0.500000
vt 0.509036 0.500000
vt 0.509036 0.875000
vt 0.750000 0.666667
vt 0.625000 0.666667
vt 0.458333 0.875000
vt 0.375000 0.875000
vt 0.458333 0.750000
vt 0.458333 0.375000
vt 0.375000 0.500000
vt 0.375000 0.375000
vt 0.458333 0.500000
vt 0.375000 0.666667
vt 0.458333 0.666667
vt 0.458333 0.583333
vt 0.509036 0.583333
vt 0.375000 0.583333
vt 0.750000 0.583333
vt 0.625000 0.583333
vt 0.250000 0.583333
vt 0.250000 0.500000
vt 0.375000 0.666667
vt 0.250000 0.583333
vt 0.375000 0.583333
vt 0.250000 0.583333
vt 0.375000 0.583333
vt 0.375000 0.583333
vt 0.375000 0.583333
vt 0.375000 0.583333
vt 0.375000 0.583333
vt 0.375000 0.583333
vt 0.250000 0.666667
vt 0.375000 0.666667
vt 0.375000 0.666667
vt 0.375000 0.583333
vt 0.375000 0.666667
vt 0.375000 0.666667
vt 0.375000 0.666667
vt 0.250000 0.666667
vt 0.375000 0.666667
vt 0.250000 0.583333
vt 0.375000 0.666667
vt 0.375000 0.666667
vt 0.250000 0.583333
vt 0.375000 0.583333
vt 0.375000 0.583333
vt 0.375000 0.583333
vt 0.375000 0.583333
vt 0.250000 0.583333
vt 0.375000 0.583333
vt 0.375000 0.666667
vt 0.250000 0.666667
vt 0.375000 0.666667
vt 0.375000 0.666667
vt 0.375000 0.666667
vt 0.625000 0.375000
vt 0.625000 0.875000
vt 0.750000 0.750000
vt 0.750000 0.500000
vt 0.250000 0.666667
vt 0.250000 0.666667
vt 0.375000 0.750000
vt 0.509036 0.666667
vt 0.509036 0.750000
vt 0.625000 0.750000
vt 0.509036 0.500000
vt 0.625000 0.500000
vt 0.625000 0.666667
vt 0.458333 0.750000
vt 0.375000 0.500000
vt 0.458333 0.500000
vt 0.375000 0.666667
vt 0.458333 0.666667
vt 0.458333 0.583333
vt 0.509036 0.583333
vt 0.375000 0.583333
vt 0.625000 0.583333
vt 0.375000 0.666667
vt 0.375000 0.583333
vt 0.375000 0.583333
vt 0.375000 0.583333
vt 0.375000 0.583333
vt 0.375000 0.583333
vt 0.375000 0.583333
vt 0.375000 0.583333
vt 0.375000 0.666667
vt 0.375000 0.666667
vt 0.375000 0.666667
vt 0.375000 0.583333
vt 0.375000 0.666667
vt 0.375000 0.666667
vt 0.375000 0.666667
vt 0.375000 0.666667
vt 0.375000 0.666667
vt 0.375000 0.583333
vt 0.375000 0.583333
vt 0.375000 0.583333
vt 0.375000 0.583333
vt 0.375000 0.583333
vt 0.375000 0.666667
vt 0.375000 0.666667
vt 0.375000 0.666667
vt 0.375000 0.666667
vn 0.3839 -0.8721 -0.3035
vn 0.9057 0.2967 0.3028
vn 0.2412 0.2395 -0.9404
vn 0.2794 0.1149 0.9533
vn 0.1741 0.9253 0.3370
vn 0.5256 -0.1262 0.8413
vn 0.4410 0.4212 0.7925
vn 0.1667 -0.3383 -0.9262
vn 0.2484 0.0000 -0.9686
vn 0.9376 -0.3309 -0.1068
vn 0.9484 0.0000 0.3171
vn 0.9123 0.0000 -0.4096
vn 1.0000 0.0000 0.0000
vn 0.7784 -0.5194 -0.3526
vn 0.8328 -0.5535 -0.0058
vn 0.1718 0.9130 -0.3701
vn 0.1849 0.9827 0.0000
vn 0.8348 0.4033 -0.3748
vn 0.9451 0.3267 0.0000
vn 0.4174 -0.9043 -0.0888
vn 0.4846 0.0806 0.8710
vn -0.0363 0.3043 -0.9519
vn 0.2387 0.1022 -0.9657
vn 0.9998 -0.0207 -0.0069
vn 0.1210 -0.1054 -0.9870
vn 0.2271 0.2975 -0.9273
vn 0.3733 0.4515 0.8104
vn 0.1114 -0.9938 -0.0007
vn 0.0850 0.4800 0.8732
vn -0.0164 0.9999 -0.0015
vn -0.0300 -0.0003 0.9995
vn 0.0000 -1.0000 0.0000
vn 0.0153 -0.9999 -0.0001
vn 0.2474 0.0019 0.9689
vn -0.0412 -0.1006 -0.9941
vn 1.0000 0.0077 -0.0064
vn -0.0181 0.2620 -0.9649
vn -0.0379 0.0961 -0.9946
vn 0.1734 -0.0800 -0.9816
vn 0.0216 0.2386 0.9709
vn 0.0218 -0.2029 0.9790
vn 0.2221 -0.0235 -0.9748
vn 0.2422 0.0231 -0.9699
vn 0.9827 0.1854 -0.0063
vn -0.0117 -0.0001 0.9999
vn 0.0117 0.0001 -0.9999
vn -0.0323 0.1854 0.9821
vn -0.1112 0.9937 -0.0105
vn 0.2748 -0.9610 -0.0313
vn 0.9063 0.3133 0.2837
vn 0.2280 0.2496 -0.9411
vn 0.2351 0.1615 0.9585
vn 0.3054 0.9337 0.1867
vn 0.4792 -0.1691 0.8612
vn 0.2812 0.0000 0.9596
vn 0.2370 -0.3003 -0.9239
vn 0.8039 -0.5305 0.2688
vn 0.7801 -0.5184 -0.3503
vn 0.8347 -0.5508 0.0000
vn 0.2111 0.9195 -0.3315
vn 0.8048 0.2782 -0.5242
vn 0.2152 -0.9268 -0.3079
vn 0.4925 0.0964 0.8649
vn 0.1204 0.4770 -0.8706
vn 0.1553 -0.0026 -0.9879
vn 0.9998 -0.0214 -0.0064
vn 0.2426 0.0019 -0.9701
vn 0.1056 0.4761 -0.8730
vn -0.0317 -0.0018 0.9995
vn 0.2364 0.2453 0.9402
vn -0.0171 0.9999 0.0001
vn -0.0306 -0.0000 0.9995
vn -0.0368 -0.0990 -0.9944
vn 0.1739 -0.0242 -0.9845
vn -0.0370 0.0216 -0.9991
vn 0.4121 0.2349 0.8803
vn 0.4215 -0.1940 0.8858
vn -0.0306 0.2627 0.9644
vn -0.0299 -0.2241 0.9741
vn 0.2217 0.0017 -0.9751
vn 0.9610 0.2614 0.0905
vn -0.3839 -0.8721 -0.3035
vn -0.9057 0.2967 0.3028
vn -0.2412 0.2395 -0.9404
vn -0.2794 0.1149 0.9533
vn -0.1741 0.9253 0.3370
vn -0.5256 -0.1262 0.8413
vn -0.4410 0.4212 0.7925
vn -0.1667 -0.3383 -0.9262
vn -0.2484 0.0000 -0.9686
vn -0.9376 -0.3309 -0.1068
vn -0.9484 0.0000 0.3171
vn -0.9123 0.0000 -0.4096
vn -1.0000 0.0000 0.0000
vn -0.7784 -0.5194 -0.3526
vn -0.8328 -0.5535 -0.0058
vn -0.1718 0.9130 -0.3701
vn -0.1849 0.9827 0.0000
vn -0.8348 0.4033 -0.3748
vn -0.9451 0.3267 0.0000
vn -0.4174 -0.9043 -0.0888
vn -0.4846 0.0806 0.8710
vn 0.0363 0.3043 -0.9519
vn -0.2387 0.1022 -0.9657
vn -0.9998 -0.0207 -0.0069
vn -0.1210 -0.1054 -0.9870
vn -0.2271 0.2975 -0.9273
vn -0.3733 0.4515 0.8104
vn -0.1114 -0.9938 -0.0007
vn -0.0850 0.4800 0.8732
vn 0.0164 0.9999 -0.0015
vn 0.0300 -0.0003 0.9995
vn -0.0153 -0.9999 -0.0001
vn -0.2474 0.0019 0.9689
vn 0.0412 -0.1006 -0.9941
vn -1.0000 0.0077 -0.0064
vn 0.0181 0.2620 -0.9649
vn 0.0379 0.0961 -0.9946
vn -0.1734 -0.0800 -0.9816
vn -0.0216 0.2386 0.9709
vn -0.0218 -0.2029 0.9790
vn -0.2221 -0.0235 -0.9748
vn -0.2422 0.0231 -0.9699
vn -0.9827 0.1854 -0.0063
vn 0.0117 -0.0001 0.9999
vn -0.0117 0.0001 -0.9999
vn 0.0323 0.1854 0.9821
vn 0.1112 0.9937 -0.0105
vn -0.2748 -0.9610 -0.0313
vn -0.9063 0.3133 0.2837
vn -0.2280 0.2496 -0.9411
vn -0.2351 0.1615 0.9585
vn -0.3054 0.9337 0.1867
vn -0.4792 -0.1691 0.8612
vn -0.2812 0.0000 0.9596
vn -0.2370 -0.3003 -0.9239
vn -0.8039 -0.5305 0.2688
vn -0.7801 -0.5184 -0.3503
vn -0.8347 -0.5508 0.0000
vn -0.2111 0.9195 -0.3315
vn -0.8048 0.2782 -0.5242
vn -0.2152 -0.9268 -0.3079
vn -0.4925 0.0964 0.8649
vn -0.1204 0.4770 -0.8706
vn -0.1553 -0.0026 -0.9879
vn -0.9998 -0.0214 -0.0064
vn -0.2426 0.0019 -0.9701
vn -0.1056 0.4761 -0.8730
vn 0.0317 -0.0018 0.9995
vn -0.2364 0.2453 0.9402
vn 0.0171 0.9999 0.0001
vn 0.0306 -0.0000 0.9995
vn 0.0368 -0.0990 -0.9944
vn -0.1739 -0.0242 -0.9845
vn 0.0370 0.0216 -0.9991
vn -0.4121 0.2349 0.8803
vn -0.4215 -0.1940 0.8858
vn 0.0306 0.2627 0.9644
vn 0.0299 -0.2241 0.9741
vn -0.2217 0.0017 -0.9751
vn -0.9610 0.2614 0.0905
usemtl Material
s off
f 64/1/1 4/2/1 49/3/1
f 16/4/2 3/5/2 7/6/2
f 55/7/3 1/8/3 5/9/3
f 3/5/4 57/10/4 7/6/4
f 66/11/5 3/5/5 10/12/5
f 4/2/6 58/13/6 49/14/6
f 8/15/7 57/10/7 58/13/7
f 56/16/8 2/17/8 47/18/8
f 55/7/9 6/19/9 56/16/9
f 11/20/10 8/15/10 4/2/10
f 16/4/11 8/15/11 14/21/11
f 5/9/12 13/22/12 6/19/12
f 15/23/13 14/21/13 13/22/13
f 6/19/14 12/24/14 2/17/14
f 13/22/15 11/20/15 12/24/15
f 1/8/16 65/25/16 9/26/16
f 65/25/17 10/12/17 9/26/17
f 1/8/18 15/23/18 5/9/18
f 9/26/19 16/4/19 15/23/19
f 2/17/20 63/27/20 47/28/20
f 64/1/21 17/29/21 11/20/21
f 74/30/22 20/31/22 78/32/22
f 63/27/23 18/33/23 74/30/23
f 11/20/24 18/33/24 12/24/24
f 35/34/25 28/35/25 26/36/25
f 20/31/26 22/37/26 24/38/26
f 75/39/27 19/40/27 17/29/27
f 30/41/28 42/42/28 41/43/28
f 19/40/29 21/44/29 17/29/29
f 18/33/30 21/44/30 22/37/30
f 31/45/31 87/46/31 25/47/31
f 86/48/32 25/47/32 87/46/32
f 26/36/33 27/49/33 25/47/33
f 31/45/34 27/49/34 29/50/34
f 100/51/35 26/36/35 86/48/35
f 29/50/36 28/35/36 34/52/36
f 24/38/37 38/53/37 40/54/37
f 30/41/36 34/52/36 33/55/36
f 20/31/38 101/56/38 78/32/38
f 36/57/39 100/51/39 101/56/39
f 19/40/34 30/41/34 23/58/34
f 30/41/34 31/45/34 29/50/34
f 19/40/40 90/59/40 32/60/40
f 90/59/41 31/45/41 32/60/41
f 20/31/42 33/55/42 36/57/42
f 36/57/43 34/52/43 35/34/43
f 38/53/44 39/61/44 40/54/44
f 39/61/36 42/42/36 40/54/36
f 23/58/45 41/43/45 39/61/45
f 24/38/46 42/42/46 33/55/46
f 23/58/47 37/62/47 21/44/47
f 22/37/48 37/62/48 38/53/48
f 64/1/49 11/20/49 4/2/49
f 16/4/50 10/12/50 3/5/50
f 55/7/51 50/63/51 1/8/51
f 3/5/52 48/64/52 57/10/52
f 66/11/53 48/65/53 3/5/53
f 4/2/54 8/15/54 58/13/54
f 8/15/55 7/6/55 57/10/55
f 56/16/56 6/19/56 2/17/56
f 55/7/9 5/9/9 6/19/9
f 11/20/57 14/21/57 8/15/57
f 16/4/11 7/6/11 8/15/11
f 5/9/12 15/23/12 13/22/12
f 15/23/13 16/4/13 14/21/13
f 6/19/58 13/22/58 12/24/58
f 13/22/59 14/21/59 11/20/59
f 1/8/60 50/66/60 65/25/60
f 65/25/17 66/11/17 10/12/17
f 1/8/61 9/26/61 15/23/61
f 9/26/19 10/12/19 16/4/19
f 2/17/62 12/24/62 63/27/62
f 64/1/63 75/39/63 17/29/63
f 74/30/64 18/33/64 20/31/64
f 63/27/65 12/24/65 18/33/65
f 11/20/66 17/29/66 18/33/66
f 35/34/67 34/52/67 28/35/67
f 20/31/68 18/33/68 22/37/68
f 75/39/69 79/67/69 19/40/69
f 30/41/28 33/55/28 42/42/28
f 19/40/70 23/58/70 21/44/70
f 18/33/71 17/29/71 21/44/71
f 31/45/72 91/68/72 87/46/72
f 86/48/32 26/36/32 25/47/32
f 26/36/33 28/35/33 27/49/33
f 31/45/34 25/47/34 27/49/34
f 100/51/73 35/34/73 26/36/73
f 29/50/36 27/49/36 28/35/36
f 24/38/37 22/37/37 38/53/37
f 30/41/36 29/50/36 34/52/36
f 20/31/74 36/57/74 101/56/74
f 36/57/75 35/34/75 100/51/75
f 19/40/76 32/60/76 30/41/76
f 30/41/77 32/60/77 31/45/77
f 19/40/78 79/67/78 90/59/78
f 90/59/79 91/68/79 31/45/79
f 20/31/67 24/38/67 33/55/67
f 36/57/80 33/55/80 34/52/80
f 38/53/81 37/62/81 39/61/81
f 39/61/36 41/43/36 42/42/36
f 23/58/45 30/41/45 41/43/45
f 24/38/46 40/54/46 42/42/46
f 23/58/47 39/61/47 37/62/47
f 22/37/48 21/44/48 37/62/48
f 64/1/82 49/3/82 46/69/82
f 70/70/83 53/71/83 45/72/83
f 55/7/84 51/73/84 43/74/84
f 45/72/85 53/71/85 57/10/85
f 66/11/86 60/75/86 45/72/86
f 46/69/87 49/14/87 58/13/87
f 54/76/88 58/13/88 57/10/88
f 56/16/89 47/18/89 44/77/89
f 55/7/90 56/16/90 52/78/90
f 61/79/91 46/69/91 54/76/91
f 70/70/92 68/80/92 54/76/92
f 51/73/93 52/78/93 67/81/93
f 69/82/94 67/81/94 68/80/94
f 52/78/95 44/77/95 62/83/95
f 67/81/96 62/83/96 61/79/96
f 43/74/97 59/84/97 65/25/97
f 65/25/98 59/84/98 60/75/98
f 43/74/99 51/73/99 69/82/99
f 59/84/100 69/82/100 70/70/100
f 44/77/101 47/28/101 63/27/101
f 64/1/102 61/79/102 72/85/102
f 74/30/103 78/32/103 77/86/103
f 63/27/104 74/30/104 73/87/104
f 61/79/105 62/83/105 73/87/105
f 98/88/106 85/89/106 89/90/106
f 77/86/107 83/91/107 81/92/107
f 75/39/108 72/85/108 76/93/108
f 93/94/109 106/95/109 107/96/109
f 76/93/110 72/85/110 80/97/110
f 73/87/111 81/92/111 80/97/111
f 94/98/112 84/99/112 87/46/112
f 86/48/32 87/46/32 84/99/32
f 85/89/113 84/99/113 88/100/113
f 94/98/114 92/101/114 88/100/114
f 100/51/115 86/48/115 85/89/115
f 92/101/116 97/102/116 89/90/116
f 83/91/117 105/103/117 103/104/117
f 93/94/116 96/105/116 97/102/116
f 77/86/118 78/32/118 101/56/118
f 99/106/119 101/56/119 100/51/119
f 76/93/114 82/107/114 93/94/114
f 93/94/114 92/101/114 94/98/114
f 76/93/120 95/108/120 90/59/120
f 90/59/121 95/108/121 94/98/121
f 77/86/122 99/106/122 96/105/122
f 99/106/123 98/88/123 97/102/123
f 103/104/124 105/103/124 104/109/124
f 104/109/116 105/103/116 107/96/116
f 82/107/125 104/109/125 106/95/125
f 83/91/126 96/105/126 107/96/126
f 82/107/127 80/97/127 102/110/127
f 81/92/128 103/104/128 102/110/128
f 64/1/129 46/69/129 61/79/129
f 70/70/130 45/72/130 60/75/130
f 55/7/131 43/74/131 50/63/131
f 45/72/132 57/10/132 48/64/132
f 66/11/133 45/72/133 48/65/133
f 46/69/134 58/13/134 54/76/134
f 54/76/135 57/10/135 53/71/135
f 56/16/136 44/77/136 52/78/136
f 55/7/90 52/78/90 51/73/90
f 61/79/137 54/76/137 68/80/137
f 70/70/92 54/76/92 53/71/92
f 51/73/93 67/81/93 69/82/93
f 69/82/94 68/80/94 70/70/94
f 52/78/138 62/83/138 67/81/138
f 67/81/139 61/79/139 68/80/139
f 43/74/140 65/25/140 50/66/140
f 65/25/98 60/75/98 66/11/98
f 43/74/141 69/82/141 59/84/141
f 59/84/100 70/70/100 60/75/100
f 44/77/142 63/27/142 62/83/142
f 64/1/143 72/85/143 75/39/143
f 74/30/144 77/86/144 73/87/144
f 63/27/145 73/87/145 62/83/145
f 61/79/146 73/87/146 72/85/146
f 98/88/147 89/90/147 97/102/147
f 77/86/148 81/92/148 73/87/148
f 75/39/149 76/93/149 79/67/149
f 93/94/109 107/96/109 96/105/109
f 76/93/150 80/97/150 82/107/150
f 73/87/151 80/97/151 72/85/151
f 94/98/152 87/46/152 91/68/152
f 86/48/32 84/99/32 85/89/32
f 85/89/113 88/100/113 89/90/113
f 94/98/114 88/100/114 84/99/114
f 100/51/153 85/89/153 98/88/153
f 92/101/116 89/90/116 88/100/116
f 83/91/117 103/104/117 81/92/117
f 93/94/116 97/102/116 92/101/116
f 77/86/154 101/56/154 99/106/154
f 99/106/155 100/51/155 98/88/155
f 76/93/156 93/94/156 95/108/156
f 93/94/157 94/98/157 95/108/157
f 76/93/158 90/59/158 79/67/158
f 90/59/159 94/98/159 91/68/159
f 77/86/147 96/105/147 83/91/147
f 99/106/160 97/102/160 96/105/160
f 103/104/161 104/109/161 102/110/161
f 104/109/116 107/96/116 106/95/116
f 82/107/125 106/95/125 93/94/125
f 83/91/126 107/96/126 105/103/126
f 82/107/127 102/110/127 104/109/127
f 81/92/128 102/110/128 80/97/128
