# Blender v2.92.0 OBJ File: 'SlashWave.blend'
# www.blender.org
mtllib SlashWave.mtl
o Cube
v 1.146036 0.088095 -0.714657
v 1.146036 0.002960 -0.714657
v 0.286078 0.103501 0.280402
v 0.779182 -0.067077 0.345793
v -1.155997 0.088095 -0.714657
v -1.155997 0.002960 -0.714657
v -0.325055 0.103501 0.266727
v -0.786138 -0.067077 0.345793
v -0.003478 -0.098505 0.038340
v -0.003478 0.159352 0.345793
v -0.003478 -0.189531 0.345793
v -0.003478 0.119711 0.134563
v -0.786138 -0.182718 -0.095329
v 0.779182 0.126358 -0.095329
v -0.786138 0.126358 -0.095329
v 0.779182 -0.182718 -0.095329
v -0.003478 -0.228907 0.275684
v -0.003478 0.197886 0.201271
v 1.146036 0.045528 -0.714657
v -0.786138 0.018212 0.345793
v 0.779182 0.018212 0.345793
v -1.155997 0.045528 -0.714657
v -0.003478 -0.032452 0.025094
v -0.003478 -0.032452 0.736414
v 1.050138 -0.028180 -0.095329
v -1.129954 -0.028180 -0.095329
v 0.387852 -0.128304 0.345793
v 0.571279 0.103903 -0.065903
v 0.571279 -0.047772 -0.114015
v 0.141300 0.131426 0.313098
v 0.387852 0.162122 0.052971
v 0.387852 -0.205812 0.090178
v 0.387852 -0.002779 0.631272
v 0.571279 0.017302 -0.120638
v -0.579737 -0.047772 -0.114015
v -0.164267 0.131426 0.306260
v -0.394808 -0.128304 0.345793
v -0.579737 0.103903 -0.065903
v -0.394808 -0.205812 0.090178
v -0.394808 0.162122 0.052971
v -0.579737 0.017302 -0.120638
v -0.394808 -0.002779 0.631272
vt 0.860779 0.221083
vt 0.789119 0.171336
vt 0.796644 0.108021
vt 0.642873 0.154492
vt 0.701292 0.331855
vt 0.818083 0.504139
vt 0.950659 0.491728
vt 0.961496 0.500413
vt 0.539338 0.204752
vt 0.422594 0.305171
vt 0.436708 0.180229
vt 0.860042 0.622437
vt 0.701473 0.669005
vt 0.822661 0.520272
vt 0.922996 0.690077
vt 0.949700 0.514240
vt 0.960508 0.504462
vt 0.883853 0.304811
vt 0.961496 0.090211
vt 0.923316 0.311499
vt 0.190483 0.957565
vt 0.115111 0.815946
vt 0.217825 0.791162
vt 0.795607 0.899053
vt 0.645294 0.999838
vt 0.642873 0.845944
vt 0.857796 0.938073
vt 0.860062 0.779797
vt 0.894868 0.927273
vt 0.883364 0.696663
vt 0.295507 0.929353
vt 0.295447 0.688706
vt 0.616885 0.306455
vt 0.545423 0.372794
vt 0.860584 0.378653
vt 0.100618 0.690926
vt 0.171019 0.502023
vt 0.224283 0.622330
vt 0.630581 0.509069
vt 0.499690 0.469871
vt 0.324177 0.157455
vt 0.481302 0.032083
vt 0.321115 0.925905
vt 0.642550 0.309014
vt 0.310624 0.480849
vt 0.070820 0.676778
vt 0.642550 0.070092
vt 0.616966 0.066640
vt 0.392889 0.319404
vt 0.511859 0.038496
vt 0.787520 0.842362
vt 0.960508 0.910572
vt 0.159942 0.964027
vt 0.002579 0.838989
vt 0.321115 0.686242
vt 0.895762 0.073294
vt 0.858561 0.062393
vt 0.645492 0.000162
vt 0.804930 0.044825
vt 0.804355 0.955538
vt 0.640479 0.522395
vt 0.321439 0.000162
vt 0.320917 0.468912
vt 0.000162 0.996270
vn -0.2395 0.9136 0.3287
vn -0.1337 0.9580 0.2537
vn -0.9991 0.0000 0.0420
vn 0.1481 -0.9464 0.2870
vn 0.4846 0.8496 0.2083
vn -0.7187 0.0000 -0.6954
vn 0.2515 0.5171 -0.8181
vn -0.1905 -0.9395 0.2849
vn 0.0288 0.9288 0.3694
vn 0.1983 0.9337 0.2981
vn -0.2176 0.7011 -0.6791
vn 0.1125 -0.7339 -0.6699
vn 0.9882 0.0000 0.1530
vn -0.3168 -0.5909 -0.7419
vn -0.4001 0.8901 0.2182
vn 0.1725 0.7517 -0.6365
vn -0.3987 -0.8871 0.2326
vn 0.4952 -0.8682 0.0330
vn 0.1418 -0.9062 0.3984
vn 0.2351 -0.1911 -0.9530
vn -0.7177 -0.0705 -0.6927
vn 0.4831 -0.8470 0.2220
vn -0.4098 -0.9117 -0.0286
vn 0.0000 0.0000 1.0000
vn -0.2357 -0.1911 -0.9529
vn -0.1739 -0.8631 -0.4742
vn -0.1253 0.9829 -0.1349
vn 0.2095 0.9201 0.3309
vn 0.1324 0.9586 0.2520
vn -0.2522 0.5170 -0.8180
vn 0.1352 -0.8639 0.4852
vn -0.1418 -0.9062 0.3984
vn 0.7168 -0.0706 -0.6937
vn 0.2232 0.6327 -0.7415
vn 0.4453 -0.7491 -0.4905
vn -0.1746 -0.9525 0.2497
vn 0.7178 0.0000 -0.6963
vn -0.0275 0.9307 0.3648
vn -0.2252 0.9414 0.2510
vn -0.2060 0.9245 0.3208
vn -0.2218 0.9467 0.2336
vn -0.4029 0.8963 0.1852
vn 0.1746 -0.9525 0.2497
vn 0.1352 0.9623 0.2359
vn -0.6847 0.3894 -0.6161
vn 0.2574 0.5643 -0.7844
vn -0.1352 -0.8639 0.4852
vn 0.2631 0.8660 0.4252
vn 0.2376 0.9386 0.2503
vn -0.2232 0.6327 -0.7415
vn 0.1739 -0.8631 -0.4742
vn 0.4818 0.8447 0.2332
vn -0.4439 -0.7514 -0.4882
vn -0.1375 0.9620 0.2358
vn 0.1263 0.9826 -0.1361
vn -0.7887 0.0000 0.6147
vn 0.1682 -0.9146 0.3678
vn 0.2360 -0.0984 -0.9668
vn 0.8521 0.0000 0.5234
vn -0.3242 -0.8660 0.3808
vn -0.2366 -0.0984 -0.9666
vn 0.3242 -0.8660 0.3808
vn -0.1127 -0.7342 -0.6695
vn -0.1712 0.7545 -0.6336
vn 0.2524 0.9037 0.3459
vn 0.2324 0.9475 0.2196
vn -0.2580 0.5642 -0.7843
vn 0.1905 -0.9395 0.2849
vn -0.1682 -0.9146 0.3678
vn 0.2178 0.6990 -0.6811
vn 0.3176 -0.5887 -0.7433
vn -0.1481 -0.9464 0.2870
vn 0.6837 0.3899 -0.6168
vn -0.2555 0.8678 0.4261
vn -0.1962 0.9361 0.2920
usemtl SlashWaveTexture
s off
f 40/1/1 7/2/1 36/3/1
f 42/4/2 7/2/2 20/5/2
f 26/6/3 5/7/3 22/8/3
f 32/9/4 4/10/4 27/11/4
f 14/12/5 21/13/5 25/14/5
f 34/15/6 1/16/6 19/17/6
f 38/18/7 23/19/7 41/20/7
f 17/21/8 37/22/8 39/23/8
f 30/24/9 24/25/9 33/26/9
f 18/27/10 30/24/10 31/28/10
f 12/29/11 31/28/11 28/30/11
f 9/31/12 39/23/12 35/32/12
f 1/16/13 25/14/13 19/17/13
f 29/33/14 16/34/14 32/9/14
f 20/5/15 15/35/15 26/6/15
f 38/18/16 15/35/16 40/1/16
f 8/36/17 26/37/17 13/38/17
f 2/39/18 25/40/18 16/34/18
f 33/41/19 11/42/19 27/11/19
f 35/32/20 23/43/20 9/31/20
f 34/44/21 2/39/21 29/33/21
f 25/40/22 4/10/22 16/34/22
f 26/37/23 6/45/23 13/38/23
f 37/22/24 20/46/24 8/36/24
f 23/47/25 29/33/25 9/48/25
f 21/49/24 27/11/24 4/10/24
f 9/48/26 32/9/26 17/50/26
f 28/30/27 14/12/27 1/16/27
f 31/28/28 3/51/28 14/12/28
f 3/51/29 33/26/29 21/13/29
f 23/52/30 28/30/30 34/15/30
f 17/50/31 27/11/31 11/42/31
f 11/53/32 42/54/32 37/22/32
f 6/45/33 41/55/33 35/32/33
f 12/56/34 40/1/34 18/57/34
f 35/32/35 13/38/35 6/45/35
f 39/23/36 8/36/36 13/38/36
f 5/7/37 41/20/37 22/8/37
f 24/58/38 36/3/38 42/4/38
f 18/57/39 36/3/39 10/59/39
f 40/1/40 15/35/40 7/2/40
f 42/4/41 36/3/41 7/2/41
f 26/6/42 15/35/42 5/7/42
f 32/9/43 16/34/43 4/10/43
f 14/12/44 3/51/44 21/13/44
f 34/15/45 28/30/45 1/16/45
f 38/18/46 12/56/46 23/19/46
f 17/21/47 11/53/47 37/22/47
f 30/24/48 10/60/48 24/25/48
f 18/27/49 10/60/49 30/24/49
f 12/29/50 18/27/50 31/28/50
f 9/31/51 17/21/51 39/23/51
f 1/16/52 14/12/52 25/14/52
f 29/33/53 2/39/53 16/34/53
f 20/5/54 7/2/54 15/35/54
f 38/18/55 5/7/55 15/35/55
f 8/36/56 20/46/56 26/37/56
f 2/39/13 19/61/13 25/40/13
f 33/41/57 24/62/57 11/42/57
f 35/32/58 41/55/58 23/43/58
f 34/44/6 19/61/6 2/39/6
f 25/40/59 21/49/59 4/10/59
f 26/37/3 22/63/3 6/45/3
f 37/22/60 42/54/60 20/46/60
f 23/47/61 34/44/61 29/33/61
f 21/49/62 33/41/62 27/11/62
f 9/48/63 29/33/63 32/9/63
f 28/30/64 31/28/64 14/12/64
f 31/28/65 30/24/65 3/51/65
f 3/51/66 30/24/66 33/26/66
f 23/52/67 12/29/67 28/30/67
f 17/50/68 32/9/68 27/11/68
f 11/53/69 24/64/69 42/54/69
f 6/45/37 22/63/37 41/55/37
f 12/56/70 38/18/70 40/1/70
f 35/32/71 39/23/71 13/38/71
f 39/23/72 37/22/72 8/36/72
f 5/7/73 38/18/73 41/20/73
f 24/58/74 10/59/74 36/3/74
f 18/57/75 40/1/75 36/3/75
