# Blender v2.92.0 OBJ File: 'SonicHowl.blend'
# www.blender.org
mtllib SonicHowl.mtl
o Cone
v 0.881644 0.168967 -2.079759
v 0.861966 -0.031550 -2.083993
v 0.804200 -0.224362 -2.086151
v 0.710564 -0.402058 -2.086152
v 0.584659 -0.557810 -2.083994
v 0.431322 -0.685632 -2.079762
v 0.256446 -0.780612 -2.073616
v 0.066751 -0.839101 -2.065794
v -0.130473 -0.858850 -2.056597
v -0.327647 -0.839101 -2.046377
v -0.517193 -0.780612 -2.035528
v -0.691827 -0.685632 -2.024466
v -0.844839 -0.557810 -2.013616
v -0.970347 -0.402058 -2.003396
v -1.063530 -0.224361 -1.994198
v -1.120805 -0.031550 -1.986376
v -1.139971 0.168967 -1.980230
v -1.120293 0.369485 -1.975996
v -1.062527 0.562296 -1.973837
v -0.968892 0.739992 -1.973837
v -0.842986 0.895744 -1.975994
v -0.689649 1.023566 -1.980227
v -0.514772 1.118547 -1.986372
v -0.325077 1.177035 -1.994194
v -0.127853 1.196785 -2.003392
v 0.069321 1.177035 -2.013611
v 0.258867 1.118546 -2.024461
v 0.433501 1.023565 -2.035523
v 0.586512 0.895743 -2.046372
v 0.712021 0.739991 -2.056592
v 0.805203 0.562294 -2.065790
v 0.862477 0.369483 -2.073613
v 0.164008 0.591501 -0.013191
v 0.817466 0.140468 -1.444386
v -0.993073 0.142774 -1.444350
v 0.669661 0.646300 -1.437221
v -0.582660 -0.625162 -1.455223
v -0.075849 1.062017 -1.431335
v 0.266706 -0.701546 -1.456305
v -0.837545 0.658726 -1.437046
v 0.799964 -0.036450 -1.446889
v -0.922074 -0.212501 -1.449382
v 0.424379 0.900750 -1.433618
v -0.254002 -0.759060 -1.457119
v -0.424654 0.996299 -1.432264
v 0.556323 -0.501939 -1.453479
v -0.975493 0.324190 -1.441782
v 0.751169 0.488318 -1.439457
v -0.721807 -0.511616 -1.453616
v 0.100679 1.041893 -1.431617
v 0.098393 -0.755187 -1.457064
v -0.722768 0.798570 -1.435064
v 0.749182 -0.206623 -1.449297
v -0.975002 -0.038526 -1.446916
v 0.559401 0.785558 -1.435249
v -0.424641 -0.708651 -1.456405
v -0.253262 1.046704 -1.431551
v 0.421253 -0.616002 -1.455094
v -0.922943 0.498486 -1.439315
v 0.801020 0.317581 -1.441875
v -0.836500 -0.372278 -1.451645
v 0.269550 0.987362 -1.432391
v -0.077396 -0.774688 -1.457344
v -0.583266 0.912552 -1.433453
v 0.666974 -0.363740 -1.451522
v 0.165505 0.082887 1.291488
v 0.033908 -0.051824 1.292077
v 0.106719 -0.028744 1.291977
v 0.155164 0.031396 1.291713
v 0.155852 0.134738 1.291260
v -0.039960 -0.030058 1.291981
v 0.107531 0.196228 1.290991
v 0.033710 0.220184 1.290888
v 0.084654 0.209105 1.290935
v -0.041054 0.198006 1.290984
v -0.091072 0.136363 1.291253
v -0.098305 0.056418 1.291603
v -0.060476 -0.013439 1.291910
v 0.008156 -0.049557 1.292068
v 0.084096 -0.041204 1.292031
v 0.142931 0.008224 1.291815
v 0.163169 0.109270 1.291373
v 0.127503 0.179074 1.291065
v 0.059733 0.217200 1.290901
v -0.017679 0.210439 1.290930
v -0.078526 0.160241 1.291148
v -0.101165 0.083366 1.291485
v -0.077493 0.007045 1.291822
v -0.016781 -0.042230 1.292035
v 0.059531 -0.048995 1.292066
v 0.126576 -0.012068 1.291904
v 0.162793 0.056598 1.291603
v 0.143814 0.158310 1.291157
v 0.007572 0.217914 1.290897
v -0.061617 0.181060 1.291059
v -0.098724 0.110384 1.291368
v -0.090291 0.030635 1.291716
v 0.180049 -0.016203 1.291921
v 0.158312 -0.043171 1.292040
v -0.000098 -0.093229 1.292259
v 0.034400 -0.096266 1.292272
v 0.068732 -0.092476 1.292257
v -0.114293 -0.017870 1.291931
v -0.091707 -0.045058 1.292048
v 0.034322 0.264631 1.290693
v -0.000702 0.261589 1.290706
v 0.159607 0.209802 1.290931
v 0.181249 0.182252 1.291052
v 0.196262 0.014511 1.291786
v 0.206353 0.047842 1.291641
v 0.101619 -0.082045 1.292210
v -0.132261 0.153059 1.291180
v -0.142381 0.118702 1.291332
v -0.034510 0.251581 1.290750
v 0.133034 0.232626 1.290832
v 0.206850 0.117401 1.291337
v 0.209934 0.082566 1.291489
v 0.197182 0.151053 1.291188
v -0.064399 -0.067180 1.292144
v -0.145605 0.083019 1.291487
v -0.065749 0.234965 1.290823
v 0.102509 0.249807 1.290757
v 0.069179 0.260634 1.290711
v 0.131847 -0.065396 1.292137
v -0.033459 -0.083427 1.292215
v -0.141828 0.047435 1.291642
v -0.093159 0.212378 1.290921
v -0.115632 0.184708 1.291041
v -0.131237 0.013361 1.291792
v 0.180049 -0.016203 1.291921
v 0.158312 -0.043171 1.292040
v -0.000098 -0.093229 1.292259
v 0.034400 -0.096266 1.292272
v 0.068732 -0.092476 1.292257
v -0.114293 -0.017870 1.291931
v -0.091707 -0.045058 1.292048
v 0.034322 0.264631 1.290693
v -0.000702 0.261589 1.290706
v 0.159607 0.209802 1.290931
v 0.181249 0.182252 1.291052
v 0.196262 0.014511 1.291786
v 0.206353 0.047842 1.291641
v 0.101619 -0.082045 1.292210
v -0.132261 0.153059 1.291180
v -0.142381 0.118702 1.291332
v -0.034510 0.251581 1.290750
v 0.133034 0.232626 1.290832
v 0.206850 0.117401 1.291337
v 0.209934 0.082566 1.291489
v 0.197182 0.151053 1.291188
v -0.064399 -0.067180 1.292144
v -0.145605 0.083019 1.291487
v -0.065749 0.234965 1.290823
v 0.102509 0.249807 1.290757
v 0.069179 0.260634 1.290711
v 0.131847 -0.065396 1.292137
v -0.033459 -0.083427 1.292215
v -0.141828 0.047435 1.291642
v -0.093159 0.212378 1.290921
v -0.115632 0.184708 1.291041
v -0.131237 0.013361 1.291792
v -0.058343 0.797254 -0.591514
v -0.424865 0.688883 -0.591987
v -0.669187 0.389260 -0.593305
v -0.705274 0.001975 -0.595007
v -0.521976 -0.337996 -0.596499
v -0.185478 -0.515363 -0.597278
v 0.188526 -0.474165 -0.597097
v 0.476546 -0.231852 -0.596034
v 0.574166 0.258630 -0.593878
v 0.400521 0.596896 -0.592396
v 0.069260 0.782657 -0.591578
v -0.310387 0.749591 -0.591723
v -0.607964 0.505108 -0.592796
v -0.718788 0.132562 -0.594431
v -0.604752 -0.237982 -0.596059
v -0.308100 -0.479256 -0.597120
v 0.067617 -0.512590 -0.597265
v 0.396805 -0.331053 -0.596468
v 0.572775 0.003470 -0.595000
v 0.479941 0.496120 -0.592837
v 0.585699 0.130900 -0.594441
v 0.191295 0.743111 -0.591751
v -0.186571 0.786145 -0.591561
v -0.525410 0.606317 -0.592350
v -0.706619 0.263399 -0.593858
v -0.666711 -0.123178 -0.595556
v -0.421755 -0.419424 -0.596854
v -0.058630 -0.526554 -0.597326
v 0.299616 -0.412858 -0.596831
v 0.535929 -0.118952 -0.595537
v 0.538510 0.381914 -0.593338
v 0.303111 0.680331 -0.592027
v -0.317462 0.416800 0.313660
v 0.396714 0.024790 0.311508
v -0.443307 0.108751 0.311970
v 0.397584 0.190736 0.312416
v -0.434545 0.023818 0.311503
v 0.372765 -0.054841 0.311069
v -0.435366 0.193837 0.312434
v 0.336277 0.345157 0.313267
v -0.369209 -0.132274 0.310649
v 0.284623 0.410676 0.313622
v 0.405102 0.107670 0.311964
v -0.315382 -0.197342 0.310290
v 0.374378 0.270902 0.312859
v -0.409489 -0.057590 0.311054
v -0.176268 -0.289253 0.309786
v 0.069221 0.531430 0.314286
v -0.096500 -0.312747 0.309661
v -0.013746 0.540918 0.314338
v 0.221277 0.464914 0.313924
v -0.250198 -0.250321 0.310001
v 0.068152 -0.310943 0.309668
v -0.177628 0.509936 0.314169
v 0.148569 0.505724 0.314146
v 0.146809 -0.285940 0.309804
v -0.252071 0.470474 0.313955
v -0.013978 -0.320030 0.309619
v -0.097120 0.533697 0.314300
v 0.282290 -0.192824 0.310315
v -0.371160 0.351000 0.313301
v 0.334151 -0.128285 0.310668
v -0.410996 0.275679 0.312883
v 0.219073 -0.246049 0.310024
v -0.387622 0.480741 0.007979
v 0.456176 0.017589 0.005348
v -0.536327 0.116791 0.005913
v 0.457196 0.213656 0.006459
v -0.525980 0.016441 0.005342
v 0.466083 0.115514 0.005902
v 0.427883 -0.076498 0.004810
v -0.526938 0.217321 0.006480
v 0.384757 0.396100 0.007496
v -0.448793 -0.167990 0.004294
v 0.323727 0.473505 0.007937
v -0.385197 -0.244874 0.003854
v 0.429776 0.308371 0.007000
v -0.496381 -0.079746 0.004794
v -0.220830 -0.353477 0.003237
v 0.069234 0.616167 0.008746
v -0.126577 -0.381239 0.003083
v -0.028788 0.627376 0.008810
v 0.248884 0.537586 0.008300
v -0.308181 -0.307475 0.003499
v 0.067971 -0.379107 0.003093
v -0.222409 0.590774 0.008604
v 0.162981 0.585797 0.008577
v 0.160910 -0.349562 0.003261
v -0.310362 0.544153 0.008337
v -0.029073 -0.389844 0.003032
v -0.127291 0.618846 0.008762
v 0.320989 -0.239536 0.003882
v -0.451070 0.403005 0.007534
v 0.382262 -0.163277 0.004320
v -0.498139 0.314014 0.007032
v 0.246294 -0.302426 0.003531
vt 0.248833 0.057843
vt 0.142296 0.028851
vt 0.159549 0.000114
vt 0.233789 0.083303
vt 0.125882 0.058031
vt 0.205168 0.134934
vt 0.110329 0.087598
vt 0.191618 0.161079
vt 0.095660 0.117507
vt 0.178615 0.187453
vt 0.081899 0.147732
vt 0.166203 0.214084
vt 0.069070 0.178262
vt 0.154440 0.241009
vt 0.057202 0.209099
vt 0.143396 0.268274
vt 0.046323 0.240257
vt 0.133156 0.295928
vt 0.036468 0.271754
vt 0.123815 0.324009
vt 0.027679 0.303606
vt 0.115476 0.352542
vt 0.020002 0.335819
vt 0.108252 0.381528
vt 0.013487 0.368385
vt 0.102255 0.410941
vt 0.008189 0.401273
vt 0.097592 0.440727
vt 0.004161 0.434437
vt 0.094359 0.470803
vt 0.001455 0.467807
vt 0.092634 0.501061
vt 0.000114 0.501299
vt 0.092475 0.531379
vt 0.000172 0.534818
vt 0.093912 0.561626
vt 0.001654 0.568265
vt 0.004568 0.601545
vt 0.096946 0.591676
vt 0.008911 0.634573
vt 0.101553 0.621414
vt 0.014669 0.667281
vt 0.107680 0.650745
vt 0.021816 0.699616
vt 0.115257 0.679600
vt 0.030317 0.731546
vt 0.124193 0.707938
vt 0.040131 0.763056
vt 0.134388 0.735746
vt 0.051212 0.794143
vt 0.145737 0.763032
vt 0.063511 0.824811
vt 0.158128 0.789820
vt 0.076973 0.855066
vt 0.171457 0.816147
vt 0.091542 0.884910
vt 0.185621 0.842048
vt 0.107158 0.914337
vt 0.200523 0.867560
vt 0.123759 0.943328
vt 0.216075 0.892709
vt 0.141280 0.971856
vt 0.232200 0.917515
vt 0.159660 0.999886
vt 0.671312 0.008003
vt 0.706010 0.170592
vt 0.657877 0.011151
vt 0.726134 0.000661
vt 0.740058 0.167237
vt 0.734080 0.166905
vt 0.700532 0.172169
vt 0.644592 0.014861
vt 0.631475 0.019161
vt 0.695078 0.173988
vt 0.557829 0.058465
vt 0.659762 0.193668
vt 0.546764 0.067306
vt 0.605834 0.029637
vt 0.679079 0.180944
vt 0.593369 0.035848
vt 0.673982 0.183740
vt 0.581183 0.042724
vt 0.526144 0.086817
vt 0.647332 0.205921
vt 0.516712 0.097420
vt 0.669044 0.186788
vt 0.569320 0.050266
vt 0.664295 0.190096
vt 0.655399 0.197468
vt 0.536182 0.076767
vt 0.651249 0.201560
vt 0.479966 0.157065
vt 0.634343 0.225542
vt 0.631785 0.230877
vt 0.474821 0.169998
vt 0.629583 0.236342
vt 0.643670 0.210523
vt 0.507935 0.108530
vt 0.492479 0.132075
vt 0.640280 0.215341
vt 0.637172 0.220354
vt 0.485850 0.144412
vt 0.461200 0.223731
vt 0.624792 0.253008
vt 0.623827 0.258628
vt 0.459380 0.237490
vt 0.623195 0.264271
vt 0.458129 0.251310
vt 0.622927 0.269939
vt 0.499846 0.120099
vt 0.463624 0.210068
vt 0.626077 0.247416
vt 0.457234 0.278967
vt 0.623066 0.275644
vt 0.623612 0.281494
vt 0.712334 0.001732
vt 0.722649 0.167432
vt 0.698561 0.003309
vt 0.717061 0.168208
vt 0.684880 0.005395
vt 0.470402 0.183167
vt 0.627677 0.241859
vt 0.466680 0.196535
vt 0.457421 0.265149
vt 0.728302 0.166978
vt 0.689646 0.176038
vt 0.618546 0.024079
vt 0.684309 0.178383
vt 0.711517 0.169268
vt 0.722661 0.167531
vt 0.717078 0.168306
vt 0.695113 0.174084
vt 0.689686 0.176133
vt 0.700563 0.172265
vt 0.674034 0.183828
vt 0.669101 0.186873
vt 0.631880 0.230918
vt 0.629680 0.236378
vt 0.623926 0.258641
vt 0.623295 0.264278
vt 0.728307 0.167078
vt 0.734079 0.167009
vt 0.706036 0.170689
vt 0.651324 0.201630
vt 0.647411 0.205987
vt 0.634436 0.225588
vt 0.624891 0.253027
vt 0.623166 0.275637
vt 0.623713 0.281484
vt 0.623027 0.269940
vt 0.740053 0.167344
vt 0.679127 0.181035
vt 0.655470 0.197543
vt 0.637263 0.220406
vt 0.626176 0.247441
vt 0.627774 0.241889
vt 0.711539 0.169365
vt 0.684353 0.178476
vt 0.659827 0.193746
vt 0.640367 0.215397
vt 0.643753 0.210585
vt 0.664356 0.190177
vt 0.723532 0.175457
vt 0.718413 0.176282
vt 0.698064 0.182100
vt 0.692993 0.184227
vt 0.703118 0.180263
vt 0.678133 0.190970
vt 0.673508 0.193691
vt 0.639794 0.234418
vt 0.637561 0.239433
vt 0.631838 0.259799
vt 0.631141 0.264927
vt 0.728620 0.174938
vt 0.733639 0.174827
vt 0.708191 0.178690
vt 0.657177 0.207172
vt 0.653628 0.211226
vt 0.642001 0.229373
vt 0.632827 0.254659
vt 0.630821 0.274950
vt 0.631466 0.279655
vt 0.630773 0.269998
vt 0.738453 0.175321
vt 0.682913 0.188486
vt 0.660918 0.203339
vt 0.644484 0.224551
vt 0.634102 0.249542
vt 0.635673 0.244466
vt 0.713292 0.177365
vt 0.687855 0.186245
vt 0.664806 0.199763
vt 0.647256 0.219924
vt 0.650311 0.215481
vt 0.669054 0.196630
vt 0.280508 0.159113
vt 0.371678 0.208346
vt 0.272904 0.178968
vt 0.252487 0.262496
vt 0.354284 0.289203
vt 0.250168 0.284154
vt 0.255974 0.241079
vt 0.356045 0.272557
vt 0.253233 0.371245
vt 0.354670 0.339501
vt 0.356725 0.356119
vt 0.354639 0.580677
vt 0.424141 0.504416
vt 0.434618 0.517035
vt 0.343141 0.049209
vt 0.416258 0.121881
vt 0.330875 0.066464
vt 0.288997 0.139709
vt 0.377517 0.193082
vt 0.298321 0.120751
vt 0.391209 0.163594
vt 0.384041 0.178166
vt 0.260578 0.219983
vt 0.358705 0.256095
vt 0.284467 0.474049
vt 0.374233 0.419992
vt 0.380768 0.435083
vt 0.340983 0.564268
vt 0.414202 0.491378
vt 0.356068 0.032385
vt 0.425700 0.108630
vt 0.446091 0.083139
vt 0.435650 0.095710
vt 0.308433 0.102231
vt 0.249193 0.327817
vt 0.250584 0.349613
vt 0.275963 0.454403
vt 0.368522 0.404517
vt 0.328027 0.547309
vt 0.404846 0.477923
vt 0.383817 0.611810
vt 0.445586 0.529228
vt 0.457006 0.540986
vt 0.368935 0.596528
vt 0.369633 0.016010
vt 0.457006 0.070938
vt 0.266242 0.199265
vt 0.362226 0.239877
vt 0.249060 0.305962
vt 0.353579 0.322755
vt 0.268536 0.434256
vt 0.363677 0.388685
vt 0.392800 0.465784
vt 0.396123 0.464054
vt 0.388080 0.449773
vt 0.319296 0.084137
vt 0.398989 0.149361
vt 0.366566 0.223950
vt 0.353456 0.305962
vt 0.262242 0.413643
vt 0.359735 0.372535
vt 0.257128 0.392617
vt 0.293989 0.493171
vt 0.407348 0.135459
vt 0.219231 0.109007
vt 0.248833 0.941985
vt 0.740058 0.000114
vt 0.315834 0.529805
vt 0.383817 0.000114
vt 0.304466 0.511758
vn 0.9905 -0.0992 0.0956
vn 0.9537 -0.2867 0.0906
vn 0.8812 -0.4643 0.0886
vn 0.7751 -0.6253 0.0902
vn 0.6389 -0.7633 0.0954
vn 0.4775 -0.8725 0.1038
vn 0.2970 -0.9479 0.1152
vn 0.1048 -0.9861 0.1292
vn -0.0912 -0.9852 0.1452
vn -0.2824 -0.9454 0.1626
vn -0.4611 -0.8688 0.1807
vn -0.6200 -0.7590 0.1988
vn -0.7532 -0.6212 0.2163
vn -0.8564 -0.4611 0.2324
vn -0.9262 -0.2851 0.2466
vn -0.9608 -0.0998 0.2585
vn -0.9595 0.0885 0.2676
vn -0.9223 0.2732 0.2735
vn -0.8504 0.4481 0.2756
vn -0.7460 0.6068 0.2744
vn -0.6122 0.7433 0.2696
vn -0.4536 0.8521 0.2613
vn -0.2759 0.9282 0.2497
vn -0.0860 0.9681 0.2352
vn 0.1085 0.9698 0.2186
vn 0.2993 0.9328 0.2005
vn 0.4787 0.8590 0.1817
vn 0.6393 0.7515 0.1630
vn 0.7750 0.6150 0.1453
vn 0.8809 0.4553 0.1291
vn 0.9535 0.2786 0.1152
vn 0.9904 0.0915 0.1039
vn 0.4731 -0.8581 0.1998
vn 0.9763 -0.0999 0.1920
vn 0.2960 -0.9324 0.2071
vn 0.1072 -0.9705 0.2157
vn -0.9169 -0.2838 0.2807
vn -0.4511 -0.8581 0.2454
vn -0.6091 -0.7509 0.2553
vn -0.9162 0.2712 0.2950
vn -0.7423 -0.6156 0.2646
vn -0.8461 -0.4578 0.2732
vn -0.9527 -0.0999 0.2869
vn -0.9525 0.0873 0.2918
vn -0.2719 0.9197 0.2832
vn -0.0831 0.9578 0.2751
vn -0.8449 0.4452 0.2965
vn -0.6073 0.7382 0.2938
vn -0.4490 0.8454 0.2894
vn 0.6332 0.7382 0.2327
vn 0.7663 0.6029 0.2219
vn 0.8699 0.4452 0.2121
vn -0.7408 0.6029 0.2961
vn 0.4752 0.8454 0.2439
vn 0.9765 0.0873 0.1968
vn 0.8688 -0.4578 0.1887
vn 0.7647 -0.6156 0.1904
vn 0.1097 0.9578 0.2656
vn 0.2984 0.9197 0.2551
vn 0.9407 0.2712 0.2036
vn 0.9400 -0.2838 0.1892
vn -0.0855 -0.9705 0.2252
vn -0.2743 -0.9324 0.2352
vn 0.6313 -0.7509 0.1942
vn 0.0000 0.0000 1.0000
vn 0.0000 0.0044 1.0000
vn 0.0000 0.0043 1.0000
vn 0.9904 -0.0993 0.0956
vn 0.9540 -0.2860 0.0904
vn 0.8820 -0.4627 0.0891
vn 0.7767 -0.6232 0.0910
vn 0.6415 -0.7610 0.0963
vn 0.4810 -0.8704 0.1048
vn 0.3011 -0.9465 0.1162
vn 0.1091 -0.9855 0.1302
vn -0.0870 -0.9854 0.1461
vn -0.2789 -0.9463 0.1634
vn -0.4583 -0.8701 0.1814
vn -0.6182 -0.7604 0.1993
vn -0.7522 -0.6223 0.2166
vn -0.8560 -0.4617 0.2326
vn -0.9262 -0.2853 0.2467
vn -0.9609 -0.0994 0.2584
vn -0.9595 0.0892 0.2674
vn -0.9221 0.2741 0.2732
vn -0.8499 0.4490 0.2759
vn -0.7451 0.6077 0.2748
vn -0.6111 0.7441 0.2700
vn -0.4522 0.8527 0.2617
vn -0.2741 0.9286 0.2501
vn -0.0839 0.9682 0.2357
vn 0.1109 0.9694 0.2191
vn 0.3019 0.9319 0.2010
vn 0.4811 0.8575 0.1823
vn 0.6414 0.7495 0.1636
vn 0.7766 0.6128 0.1458
vn 0.8819 0.4532 0.1296
vn 0.9539 0.2769 0.1155
vn 0.9904 0.0905 0.1041
vn -0.6092 -0.7509 0.2553
usemtl SonicHowlTexture
s off
f 34/1/1 2/2/1 1/3/1
f 41/4/2 3/5/2 2/2/2
f 3/5/3 65/6/3 4/7/3
f 4/7/4 46/8/4 5/9/4
f 5/9/5 58/10/5 6/11/5
f 6/11/6 39/12/6 7/13/6
f 7/13/7 51/14/7 8/15/7
f 8/15/8 63/16/8 9/17/8
f 9/17/9 44/18/9 10/19/9
f 10/19/10 56/20/10 11/21/10
f 11/21/11 37/22/11 12/23/11
f 12/23/12 49/24/12 13/25/12
f 13/25/13 61/26/13 14/27/13
f 14/27/14 42/28/14 15/29/14
f 15/29/15 54/30/15 16/31/15
f 16/31/16 35/32/16 17/33/16
f 17/33/17 47/34/17 18/35/17
f 18/35/18 59/36/18 19/37/18
f 59/36/19 20/38/19 19/37/19
f 40/39/20 21/40/20 20/38/20
f 52/41/21 22/42/21 21/40/21
f 64/43/22 23/44/22 22/42/22
f 45/45/23 24/46/23 23/44/23
f 57/47/24 25/48/24 24/46/24
f 38/49/25 26/50/25 25/48/25
f 50/51/26 27/52/26 26/50/26
f 62/53/27 28/54/27 27/52/27
f 43/55/28 29/56/28 28/54/28
f 55/57/29 30/58/29 29/56/29
f 36/59/30 31/60/30 30/58/30
f 48/61/31 32/62/31 31/60/31
f 60/63/32 1/64/32 32/62/32
f 225/65/33 111/66/33 217/67/33
f 195/68/34 117/69/34 110/70/34
f 217/67/35 102/71/35 214/72/35
f 219/73/36 214/72/36 102/71/36 101/74/36
f 207/75/37 126/76/37 198/77/37
f 208/78/38 119/79/38 213/80/38
f 213/80/39 104/81/39 205/82/39
f 200/83/40 112/84/40 224/85/40
f 205/82/41 103/86/41 202/87/41
f 202/87/42 129/88/42 207/75/42
f 198/77/43 120/89/43 196/90/43
f 196/90/44 113/91/44 200/83/44
f 220/92/45 114/93/45 106/94/45
f 211/95/46 220/92/46 106/94/46 105/96/46
f 224/85/47 128/97/47 222/98/47
f 218/99/48 127/100/48 121/101/48
f 215/102/49 121/101/49 114/93/49
f 203/103/50 115/104/50 107/105/50
f 201/106/51 107/105/51 108/107/51
f 206/108/52 108/107/52 118/109/52
f 194/110/53 128/97/53 127/100/53
f 212/111/54 122/112/54 115/104/54
f 204/113/55 116/114/55 117/115/55
f 199/116/56 98/117/56 223/118/56
f 223/118/57 99/119/57 221/120/57
f 209/121/58 105/96/58 123/122/58
f 216/123/59 123/122/59 122/112/59
f 197/124/60 118/109/60 116/114/60
f 199/116/61 110/70/61 109/125/61
f 219/73/62 100/126/62 210/127/62
f 210/127/63 125/128/63 208/78/63
f 221/120/64 124/129/64 225/65/64
f 130/130/65 131/131/65 99/119/65 98/117/65
f 133/132/65 132/133/65 100/126/65 101/74/65
f 134/134/65 133/132/65 101/74/65 102/71/65
f 136/135/65 135/136/65 103/86/65 104/81/65
f 138/137/65 137/138/65 105/96/65 106/94/65
f 139/139/65 140/140/65 108/107/65 107/105/65
f 141/141/65 130/130/65 98/117/65 109/125/65
f 142/142/65 141/141/65 109/125/65 110/70/65
f 143/143/65 134/134/65 102/71/65 111/66/65
f 145/144/65 144/145/65 112/84/65 113/91/65
f 146/146/65 138/137/65 106/94/65 114/93/65
f 147/147/65 139/139/65 107/105/65 115/104/65
f 148/148/65 149/149/65 117/115/65 116/114/65
f 150/150/65 148/148/65 116/114/65 118/109/65
f 149/151/65 142/142/65 110/70/65 117/69/65
f 151/152/65 136/135/65 104/81/65 119/79/65
f 152/153/65 145/144/65 113/91/65 120/89/65
f 153/154/65 146/146/65 114/93/65 121/101/65
f 154/155/65 147/147/65 115/104/65 122/112/65
f 155/156/65 154/155/65 122/112/65 123/122/65
f 156/157/65 143/143/65 111/66/65 124/129/65
f 157/158/65 151/152/65 119/79/65 125/128/65
f 158/159/65 152/153/65 120/89/65 126/76/65
f 159/160/65 153/154/65 121/101/65 127/100/65
f 160/161/65 159/160/65 127/100/65 128/97/65
f 137/138/65 155/156/65 123/122/65 105/96/65
f 131/131/65 156/157/65 124/129/65 99/119/65
f 132/133/65 157/158/65 125/128/65 100/126/65
f 161/162/65 158/159/65 126/76/65 129/88/65
f 135/136/65 161/162/65 129/88/65 103/86/65
f 144/145/65 160/161/65 128/97/65 112/84/65
f 140/140/65 150/150/65 118/109/65 108/107/65
f 81/163/66 91/164/66 131/131/66 130/130/66
f 67/165/66 79/166/66 132/133/66 133/132/66
f 90/167/66 67/165/66 133/132/66 134/134/66
f 78/168/67 88/169/67 135/136/67 136/135/67
f 94/170/66 73/171/66 137/138/66 138/137/66
f 83/172/66 93/173/66 140/140/66 139/139/66
f 69/174/66 81/163/66 130/130/66 141/141/66
f 92/175/66 69/174/66 141/141/66 142/142/66
f 80/176/66 90/167/66 134/134/66 143/143/66
f 96/177/66 76/178/66 144/145/66 145/144/66
f 85/179/66 94/170/66 138/137/66 146/146/66
f 72/180/66 83/172/66 139/139/66 147/147/66
f 82/181/66 66/182/66 149/149/66 148/148/66
f 70/183/66 82/181/66 148/148/66 150/150/66
f 66/184/66 92/175/66 142/142/66 149/151/66
f 71/185/67 78/168/67 136/135/67 151/152/67
f 87/186/67 96/177/67 145/144/67 152/153/67
f 75/187/66 85/179/66 146/146/66 153/154/66
f 74/188/66 72/180/66 147/147/66 154/155/66
f 84/189/66 74/188/66 154/155/66 155/156/66
f 68/190/66 80/176/66 143/143/66 156/157/66
f 89/191/66 71/185/66 151/152/66 157/158/66
f 77/192/66 87/186/66 152/153/66 158/159/66
f 95/193/66 75/187/66 153/154/66 159/160/66
f 86/194/67 95/193/67 159/160/67 160/161/67
f 73/171/66 84/189/66 155/156/66 137/138/66
f 91/164/66 68/190/66 156/157/66 131/131/66
f 79/166/66 89/191/66 157/158/66 132/133/66
f 97/195/66 77/192/66 158/159/66 161/162/66
f 88/169/66 97/195/66 161/162/66 135/136/66
f 76/178/66 86/194/66 160/161/66 144/145/66
f 93/173/66 70/183/66 150/150/66 140/140/66
f 167/196/63 240/197/63 177/198/63
f 187/199/37 230/200/37 165/201/37
f 176/202/42 239/203/42 187/199/42
f 174/204/47 256/205/47 254/206/47
f 192/207/52 234/208/52 238/209/52
f 169/210/57 253/211/57 179/212/57
f 189/213/62 242/214/62 167/196/62
f 189/213/36 178/215/36 246/216/36 251/217/36
f 166/218/41 235/219/41 176/202/41
f 162/220/46 252/221/46 243/222/46
f 181/223/51 236/224/51 234/208/51
f 191/225/56 255/226/56 169/210/56
f 191/225/61 227/227/61 232/228/61
f 168/229/35 246/216/35 178/215/35
f 186/230/40 256/205/40 164/231/40
f 184/232/45 247/233/45 252/221/45
f 171/234/50 244/235/50 236/224/50
f 182/236/55 229/237/55 231/238/55
f 170/239/60 238/209/60 229/237/60
f 180/240/34 231/241/34 227/227/34
f 188/242/39 237/243/39 166/218/39
f 175/244/44 233/245/44 186/230/44
f 173/246/49 250/247/49 247/233/49
f 33/248/54 248/249/54 244/235/54
f 241/250/59 248/249/59 33/248/59
f 190/251/33 249/252/33 168/229/33
f 177/198/38 245/253/38 188/242/38
f 165/201/43 228/254/43 175/244/43
f 163/255/48 226/256/48 250/247/48
f 185/257/53 254/206/53 226/256/53
f 172/258/58 243/222/58 241/250/58
f 179/212/64 257/259/64 190/251/64
f 34/1/68 41/4/68 2/2/68
f 41/4/69 53/260/69 3/5/69
f 3/5/70 53/260/70 65/6/70
f 4/7/71 65/6/71 46/8/71
f 5/9/72 46/8/72 58/10/72
f 6/11/73 58/10/73 39/12/73
f 7/13/74 39/12/74 51/14/74
f 8/15/75 51/14/75 63/16/75
f 9/17/76 63/16/76 44/18/76
f 10/19/77 44/18/77 56/20/77
f 11/21/78 56/20/78 37/22/78
f 12/23/79 37/22/79 49/24/79
f 13/25/80 49/24/80 61/26/80
f 14/27/81 61/26/81 42/28/81
f 15/29/82 42/28/82 54/30/82
f 16/31/83 54/30/83 35/32/83
f 17/33/84 35/32/84 47/34/84
f 18/35/85 47/34/85 59/36/85
f 59/36/86 40/39/86 20/38/86
f 40/39/87 52/41/87 21/40/87
f 52/41/88 64/43/88 22/42/88
f 64/43/89 45/45/89 23/44/89
f 45/45/90 57/47/90 24/46/90
f 57/47/91 38/49/91 25/48/91
f 38/49/92 50/51/92 26/50/92
f 50/51/93 62/53/93 27/52/93
f 62/53/94 43/55/94 28/54/94
f 43/55/95 55/57/95 29/56/95
f 55/57/96 36/59/96 30/58/96
f 36/59/97 48/61/97 31/60/97
f 48/61/98 60/63/98 32/62/98
f 60/63/99 34/261/99 1/64/99
f 225/65/33 124/129/33 111/66/33
f 195/68/34 204/262/34 117/69/34
f 217/67/35 111/66/35 102/71/35
f 207/75/37 129/88/37 126/76/37
f 208/78/38 125/128/38 119/79/38
f 213/80/100 119/79/100 104/81/100
f 200/83/40 113/91/40 112/84/40
f 205/82/41 104/81/41 103/86/41
f 202/87/42 103/86/42 129/88/42
f 198/77/43 126/76/43 120/89/43
f 196/90/44 120/89/44 113/91/44
f 220/92/45 215/102/45 114/93/45
f 224/85/47 112/84/47 128/97/47
f 218/99/48 194/110/48 127/100/48
f 215/102/49 218/99/49 121/101/49
f 203/103/50 212/111/50 115/104/50
f 201/106/51 203/103/51 107/105/51
f 206/108/52 201/106/52 108/107/52
f 194/110/53 222/98/53 128/97/53
f 212/111/54 216/123/54 122/112/54
f 204/113/55 197/124/55 116/114/55
f 199/116/56 109/125/56 98/117/56
f 223/118/57 98/117/57 99/119/57
f 209/121/58 211/95/58 105/96/58
f 216/123/59 209/121/59 123/122/59
f 197/124/60 206/108/60 118/109/60
f 199/116/61 195/68/61 110/70/61
f 219/73/62 101/74/62 100/126/62
f 210/127/63 100/126/63 125/128/63
f 221/120/64 99/119/64 124/129/64
f 167/196/63 242/214/63 240/197/63
f 187/199/37 239/203/37 230/200/37
f 176/202/42 235/219/42 239/203/42
f 174/204/47 164/231/47 256/205/47
f 192/207/52 181/223/52 234/208/52
f 169/210/57 255/226/57 253/211/57
f 189/213/62 251/217/62 242/214/62
f 166/218/41 237/243/41 235/219/41
f 162/220/46 184/232/46 252/221/46
f 181/223/51 171/234/51 236/224/51
f 191/225/56 232/228/56 255/226/56
f 191/225/61 180/240/61 227/227/61
f 168/229/35 249/252/35 246/216/35
f 186/230/40 233/245/40 256/205/40
f 184/232/45 173/246/45 247/233/45
f 171/234/50 193/263/50 244/235/50
f 182/236/55 170/239/55 229/237/55
f 170/239/60 192/207/60 238/209/60
f 180/240/34 182/264/34 231/241/34
f 188/242/39 245/253/39 237/243/39
f 175/244/44 228/254/44 233/245/44
f 173/246/49 163/255/49 250/247/49
f 244/235/54 193/263/54 33/248/54
f 193/263/54 183/265/54 33/248/54
f 33/248/59 183/265/59 172/258/59
f 172/258/59 241/250/59 33/248/59
f 190/251/33 257/259/33 249/252/33
f 177/198/38 240/197/38 245/253/38
f 165/201/43 230/200/43 228/254/43
f 163/255/48 185/257/48 226/256/48
f 185/257/53 174/204/53 254/206/53
f 172/258/58 162/220/58 243/222/58
f 179/212/64 253/211/64 257/259/64
